<?xml version="1.0" encoding="utf-8"?>
<!-- Generator: Adobe Illustrator 22.1.0, SVG Export Plug-In . SVG Version: 6.00 Build 0)  -->
<svg version="1.1" baseProfile="tiny" id="Layer_1" xmlns="http://www.w3.org/2000/svg" xmlns:xlink="http://www.w3.org/1999/xlink"
	 x="0px" y="0px" viewBox="0 0 355 229" xml:space="preserve">
<title>Asset 4</title>
<g display="none">
	<g id="Layer_2_1_" display="inline">
		<g id="Layer_1-2">
			<g display="none">
				<path display="inline" d="M-106.6-81.1h583.9c13,0,23.5,10.5,23.5,23.5V3.4c0,13-10.5,23.5-23.5,23.5h-583.9
					c-13,0-23.5-10.5-23.5-23.5v-61.1C-130.1-70.6-119.6-81.1-106.6-81.1z"/>
				<path display="inline" d="M-106.6,150.7h583.9c13,0,23.5,10.5,23.5,23.5v61.1c0,13-10.5,23.5-23.5,23.5h-583.9
					c-13,0-23.5-10.5-23.5-23.5v-61.1C-130.1,161.3-119.6,150.7-106.6,150.7z"/>
			</g>
			<image width="279" height="191" xlink:href="CB312F3E0C7329DB.png"  transform="matrix(2.18 0 0 2.18 -32.346 -119.0067)">
			</image>
			<image width="609" height="417" xlink:href="CB312F3E0C7329D9.png"  transform="matrix(1 0 0 1 -33 -115)">
			</image>
			<path fill="#FBE1DD" d="M159.5,89.8c-6.5,13-15,24.9-25.1,35.4c-11.2,11.4-25,20.8-40.2,24.5c-2.6,0.5-8.9-0.3-8.7-4.5
				c10.2-2.9,19.8-7.5,28.3-13.8c8.9-6.5,16.8-14.2,23.6-22.9c7.8-9.9,13.3-21.5,16.1-33.8c0.6-2.2,0.3-8.7-2.6-11.2
				c-5.6-4-12.3-6.3-19.3-6.5c-8-0.3-16,1-23.6,3.7c-9.8,3.5-18.7,9.6-27,15.7c-3.7,0.5-5.7-4.4-4.4-6.9
				c9.1-8.2,17.4-17.3,24.7-27.1c5.4-7.4,9.3-15.7,11.6-24.6C114.3,12.5,114,7,112,2c-2-5.8-6-10.8-11.2-14.2
				c-6.6-3.9-14.1-6.1-21.8-6.4c-5.6-0.3-11.2,0.7-16.4,2.9c-0.8,0.6-1.7,1.2-2.6,1.6c-0.9,0.6-2.1,0.7-3.2,0.3
				c-1.5-0.9-1.9-2.9-0.9-4.3c0.2-0.3,0.4-0.5,0.6-0.7c3.5-4.2,8.4-7,13.8-7.7c8.1-0.9,16.3-0.2,24.1,2.2
				c9.2,2.7,19.8,8.7,24.4,18.1c3.7,7.8,4.8,16.6,3.2,25c-2.6,12.8-10,24.7-19.2,34.9c9.1-4.3,19-6.3,29-5.9
				c9.1,0.1,17.9,3,25.3,8.3c4.2,3.1,6.7,8.1,6.5,13.3c0,3.6-0.5,7.2-1.4,10.6L159.5,89.8z"/>
			<path fill="#FBE1DD" d="M268,114c-1.9-5.6-3.5-11.4-4.9-17.2c-7.8,18.1-18.1,36.7-36.2,50.1c-5.8,4.4-14.7,5.9-21,2.2
				c-6.4-3.7-10.7-10.2-11.5-17.6c-0.8-9.1,0.1-18.4,2.9-27.1c6.1-21.4,18.9-40.2,36.5-53.8c2.5-1.4,5.1-2.5,7.8-3.4
				c2.9-0.9,6-0.7,8.7,0.5c6.6,2.9,11.7,8.2,14.4,14.9c2.9,3.7,2.9,9.3,3.4,13.8c1.1,1.8,1.9,3.8,2.6,5.8c1.2,9.2,3.3,18.2,6.3,26.9
				c4.9,14.1,7.8,25,19.6,35.7c0.3,3.4-4.4,2.9-6.9,2.4C277,138.8,272.9,126.8,268,114z M247.9,56.5c-2.6-0.7-5.3-0.2-7.5,1.3
				c-8.9,5.6-16.9,15.7-22.1,24c-6.2,10.6-10.7,22.1-13.2,34.1c-0.5,4.1-0.7,8.2-0.6,12.3c0.2,3.8,1.5,7.4,3.7,10.4
				c3,2.3,7,3,10.6,1.9c20.4-14.6,32.2-34.9,39.7-55.6c0.3-3.1,1.2-6.1,2.9-8.7c-1.2-3.6-2.8-7.1-4.6-10.4
				C254.8,61.9,251.7,58.7,247.9,56.5z"/>
			<path fill="#FBE1DD" d="M374.1,147c-0.3-2.6-0.2-5.2,0.3-7.7c0-0.8,0-1.6-0.3-2.4c1.7-23.8,1.2-47.6-1.4-71.3
				c-0.2-1.5-0.6-3-1.2-4.4c-0.4-1.3-1.2-2.5-2.3-3.5c-2.6-2.4-5.8-2.2-8.9-0.5c-3.7,2.2-6.9,6.5-9.8,9.8
				c-10.2,12.3-18,26.3-23.3,41.4c-4.5,12.1-7.6,24.7-9.5,37.5c-1.2,2.9-6.9,3.5-8-0.3c0-4.8-0.3-14.1-0.3-19.2
				c-0.6-17.6-3.2-40.7-4-54.3c-0.6-7.4-1.2-15.3-4.4-22.1c-0.4-2.1,0.8-4.2,2.9-4.8c3.3,0.6,6,2.9,7.2,6.1l1.4,2.7
				c2.6,18.6,3.7,37.5,5.8,56.2c4.2-11.1,9.3-21.9,15.3-32.2c6-10.3,13.6-19.7,22.4-27.7c2.9-1.6,6-3.7,10.4-3.2
				c3.8,0.3,7.4,1.8,10.4,4.3c3.6,5.9,5.9,12.4,6.9,19.2c1.7,11.2,0.9,23.2,1.2,34.3c0.2,10.7-0.2,21.5-1.2,32.2
				c3.9-2.8,7.6-6,10.9-9.6l10.6-12.8c1.4-1.3,3.4,1,3.2,2.2c-6.1,12.7-15.1,23.9-26.2,32.7C379,152.3,374.9,149.4,374.1,147z"/>
			<path fill="#FBE1DD" d="M475.3,139.8c0,8.7,0,17.8-0.3,26.3c-0.2,8.6-1.9,17-4.9,25c-3.7,8.2-10.2,14.7-18.4,18.4
				c-5.5,2.9-14.1,4.3-20.1,1.9c-5.6-2.2-10.1-6.7-12.4-12.3c-2-11.7,4.6-21.3,10.6-29.8c9.5-13.3,23-23.7,36.2-33.3
				c-0.3-16.8,1.7-33.8,2.6-50.6L459.5,97c-3.7,4.7-7.9,8.9-12.6,12.5c-5.6,4-12.6,5.5-19.3,4c-7.3-3-11.9-10.2-11.5-18.1
				c1.2-11.4,5.6-22.3,12.6-31.4c4.2-5.6,9.4-10.5,15.3-14.4c4.5-2.4,9.7-3,14.6-1.9c3.9,1.6,7.2,4.4,9.5,8c3.2,6.4,1.4,14.1,0,20.5
				c1.4-0.6,2.9-1,4.4-1c2.6,0.3,4.8,2,5.8,4.4c0.9,3.2-0.9,6.5-0.3,9.9c-1.5,13.6-2.3,27.2-2.3,40.9c1.4-0.5,3.2-1.6,4.9-2.4
				c2-1.3,4-2.4,6-3.5c1.7,0,2.3,3.2,1.2,4.8c-1.9,2.2-4,4.1-6.3,5.8C479.3,136.6,477,138.2,475.3,139.8z M447.4,57.6
				c-7.8,4.8-15.5,17.8-18.4,25.5c-2.5,5.6-3.1,11.9-1.7,17.8c1.1,2.2,3.1,3.9,5.5,4.5c4.1,0.4,8.2-1,11.2-3.7
				c4.3-4.1,7.9-8.9,10.6-14.1c1.1-2.9,2.6-5.8,3.7-9c1.3-2.8,2.1-5.7,2.6-8.7c0.8-3.8,0.3-7.7-1.4-11.2
				C456.2,55.5,451.2,55,447.4,57.6z M428.7,192.7c0.3,3.5,0.9,6.5,3.7,8.7c3.2,2.2,7.1,3,10.9,2.2c8.7-3.3,15.5-10.2,18.7-18.9
				c2.3-6.1,3.5-12.6,3.7-19.2c0.3-6.4,0-13.1-0.3-19.2c-10.7,8-20.1,17.5-28.2,28.2C433.1,179.9,430.2,186.1,428.7,192.7z"/>
			<g transform="translate(0 14)">
				
					<image width="148" height="215" id="image" xlink:href="CB312F3E0C7329DF.png"  transform="matrix(2.18 0 0 2.18 -198.026 -88.4867)">
				</image>
			</g>
			<path fill="#C9D8FF" d="M-84.4,106.3l5.5-15.4l36-16.4C-21.6,64.4-6.1,59.3,3.6,59.3c7.5,0,11.3,3.4,11.3,10.3
				c-0.4,4.1-1.4,8.2-3,12c-2,5.5-5.4,13.4-10.1,23.7s-10.2,21.9-16.5,34.9c-6.2,13.1-12.7,26.5-19.5,40.2
				c9.7-6.6,18.3-12.8,25.6-18.4c7.3-5.7,15.9-12.8,25.8-21.3l0.4,13.8c-24.9,21.6-48,43.1-69.3,64.4
				c-12.8,25.1-24.2,43.9-34.1,56.7c-9.9,12.7-17.3,19.1-22.2,19.1c-3.5,0-5.3-3.4-5.3-10.3c0.1-8.8,2-17.4,5.6-25.4
				c4.6-9.7,10.4-18.7,17.4-26.9c8.5-10.2,17.7-19.9,27.5-28.8c16.5-32.4,28.1-56,34.9-70.8c6.8-14.7,10.2-24.4,10.2-28.9
				c0-2.9-1.4-4.4-4.1-4.4c-1.5,0-11.1,4.2-29,12.6c-17.9,8.4-29,12.6-33.5,12.6c-2.7,0-4.1-1.5-4.1-4.5
				C-87.5,115.2-86.2,110.7-84.4,106.3z M40.4,5.4c0,3.9-1.5,9.4-4.5,16.4c-3.3,9.5-6.2,15.8-8.7,18.9c-2.9,3.3-7.2,5-11.5,4.7
				c-11.2,0-16.7-3.7-16.7-11.1c0-5.8,3.4-14.2,10.3-25.1c3.6-5.8,6.5-9.4,8.7-10.9c3.3-1.6,7-2.3,10.7-2
				C36.5-3.7,40.4-0.7,40.4,5.4z"/>
		</g>
	</g>
</g>
<g>
	<g display="none">
		
			<image display="inline" width="211" height="109" xlink:href="../../../personal-logo/93FC865BC844F4D9.png"  transform="matrix(2.1676 0 0 2.1676 -51.1309 -0.5704)">
		</image>
	</g>
	<g>
		
			<image width="210" height="109" xlink:href="../../../personal-logo/93FC865BC844F4DB.png"  transform="matrix(2.1676 0 0 2.1676 -48.9514 -0.5675)">
		</image>
	</g>
	<g>
		
			<image width="210" height="109" xlink:href="../../../personal-logo/93FC865BC844F4DE.png"  transform="matrix(2.1676 0 0 2.1676 -48.9514 -0.5675)">
		</image>
	</g>
	<g>
		<image width="563" height="340" xlink:href="CB312F3E0C7329E7.png"  transform="matrix(1 0 0 1 -103 -53)">
		</image>
		<g>
			<g>
				<path fill="#FFFFFF" d="M56.6,80.9h1.5c3.3,0,5.2,2,5.9,6.1v44c0,8.3-2.8,14.6-8.7,19.4c-4.4,2.4-8.3,3.5-12.2,3.5h-2.8
					c-7-0.4-10.7-1.5-10.7-3.5V150c0.2-1.3,0.9-2,2-2h0.2c4.1,1.1,7.4,1.7,9.8,1.7c6.5,0,11.3-2.2,14.6-6.8
					c2.4-4.1,3.5-8.5,3.5-13.1c0-1.5-0.2-2.6-0.2-3.5V86.5c0-1.1-0.7-1.7-2.2-2c-1.5,0-2.4,1.1-2.4,3.1v40.1c0,0.9-0.7,1.5-2,1.7
					c-1.3,0-2.2-0.9-2.2-2.4V87.8c0-3.5,1.3-5.9,3.9-7.2C55.9,81.1,56.4,80.9,56.6,80.9z"/>
				<path fill="#FFFFFF" d="M97.8,80.4c7.2,0,12.9,2.6,17.2,7.8c2.2,3.1,3.1,6.5,3.1,10.2c0,7.8-4.4,13.1-13.1,16.1v0.2
					c5.2,1.3,9.2,3.7,12,7c2.4,3.1,3.5,6.1,3.5,9.4v2.2c0,7-3.5,12.6-10.5,17.2c-4.8,2.6-9.6,3.9-14.4,3.9h-2.8
					c-5.9,0-12-1.7-18.3-5.2c0-0.2,0-0.4-0.2-0.7v-0.9c0-0.9,0.7-1.5,2-1.7c6.3,3.3,12.2,4.8,18.1,4.8c8.5,0,14.8-2.8,19.4-8.5
					c2-3.1,3.1-6.5,3.1-10c0-7.8-5.7-12.6-16.8-14.8c-2.8-0.4-5.4-0.9-7.8-0.9c-0.2,0-0.4,0-0.4-0.2l-0.9,0.2h-4.6
					c-1.1,0-1.7-0.7-1.7-2.2c0-0.9,0.7-1.3,1.7-1.7c2.6,0,4.1-0.2,4.8-0.2c0,0,0.2,0,0.4,0.2c0.2,0,0.4-0.2,0.9-0.2
					c7.2,0,13.3-1.7,18.1-5.4c2.6-2.4,3.9-5.4,3.9-8.9c0-6.5-3.3-10.9-10-13.1c-1.7-0.7-4.4-1.1-7.4-1.3c-5.4,0-10.7,1.3-15.3,4.1
					v0.9c0,0.9,0.2,1.5,0.9,2H83c0.2,0,1.7-0.7,4.4-1.7c2.6-0.9,5.2-1.3,7.4-1.3h1.3c6.8,0,10.9,3.1,12.6,9.4c0,0.7,0.2,1.3,0.2,2
					v0.9c0,0.9-0.7,1.5-2,1.7c-1.3,0-2-1.5-2-4.6c-0.7-2-1.7-3.5-3.3-4.4c-1.7-0.9-3.5-1.3-5.7-1.3h-1.3c-2.8,0-6.3,0.9-10.5,2.8
					c-0.4,0-0.9,0.2-1.3,0.2h-0.2c-2.4,0-3.9-1.5-4.8-4.4c0-0.4-0.2-1.1-0.2-1.5v-0.2c0-3.9,5.7-6.5,16.8-7.8H97.8z"/>
				<path fill="#FFFFFF" d="M161,81.3h1.7c4.8,0,8.3,4.1,10.2,12.6c10.5,30.3,16.6,48,18.1,53.4v2c0,2.8-2,4.4-5.9,5h-1.3
					c-3.7,0-6.1-3.3-7.6-9.6c-2.2-6.8-3.7-10.2-4.6-10.2c-2.4-2.4-5.9-3.5-10.5-3.5c-2.6,0-6.5,0.7-12,2c-0.9,0-1.5-0.7-2-2.2v-0.2
					c0-1.5,2.2-2.6,6.8-3.1c1.7-0.4,3.7-0.7,6.1-0.7h2.6c6.3,0,11.1,2.6,14.4,7.6c0.4,0.9,2.2,5.7,5.2,14.4c0.7,0.9,1.1,1.3,1.7,1.3
					h1.3c0.9,0,1.5-0.4,1.5-1.5c-12.4-37.5-19.4-57.8-20.9-60.8c-0.9-1.3-2.2-2-3.7-2h-1.1c-2.6,0-4.6,2.6-5.9,8.1l-20.5,59.7
					c-0.4,0.4-0.9,0.7-1.3,0.7h-0.7c-1.1-0.2-1.7-0.9-1.7-1.7v-0.4c0.7-2.4,7.8-23.3,21.1-62.8C154.3,83.9,157.1,81.3,161,81.3z"/>
				<path fill="#FFFFFF" d="M206.6,80.9h1.7c2.8,0,4.6,2,5.4,6.1c0.9,7.2,2.6,12.9,4.8,16.8c9.2,15,18.5,30.1,28.3,45.6l2.2,0.7
					c1.7,0,3.1-1.3,3.9-3.7v-58c0-2.2-0.4-3.1-1.3-3.1h-1.3c-0.9,0-1.3,0.7-1.5,1.7l0.7,53.6c0,0.9-0.7,1.5-2.2,2h-0.2
					c-1.3-0.2-2.2-0.9-2.2-2.2c0-4.8-0.2-22.9-0.7-53.8c0-2,1.3-3.7,3.7-5.5c1.1-0.2,1.7-0.4,2.2-0.4h1.1c2.6,0,4.6,1.5,5.7,4.8v61
					c0,3.1-2,5.4-5.7,7.4c-0.7,0-1.1,0.2-1.5,0.2h-1.5c-3.1,0-5.7-2.2-7.8-6.8c-15.5-24.6-24.6-39.5-27.5-44.9
					c-2.4-6.3-3.7-11.3-3.7-15c-0.4-1.7-1.1-2.4-2.2-2.4c-1.5,0-2.2,1.1-2.2,3.5v64.3c-0.4,0.9-1.1,1.3-1.7,1.3h-0.7
					c-1.1-0.2-1.7-0.9-1.7-1.7V86.5C202,82.8,204,80.9,206.6,80.9z"/>
				<path fill="#FFFFFF" d="M302.5,80.9h3.3c5.9,0,12,1.1,18.5,3.3c0.7,0.7,0.9,1.3,0.9,2c0,1.1-0.9,1.7-2.4,2
					c-6.8-2-13.1-3.1-18.7-3.1c-15,0-25.1,6.3-29.9,19.2c-2,5-2.8,9.8-2.8,14.2c0,8.1,2.6,15.3,7.8,22c6.5,6.5,14.8,9.6,25.1,9.6
					c5.5,0,11.8-1.1,18.7-3.3v-26.8c0-1.5-0.4-2.2-1.5-2.2h-15.3c-0.9,0-1.3,0.4-1.3,1.3c0,0.9,0.4,1.3,1.3,1.3h10
					c1.7,0.2,2.6,1.1,2.6,2.6v19.6c-0.2,1.5-0.9,2.4-2,2.4h-0.4c-1.3-0.2-1.7-0.9-1.7-1.7v-18.3H306c-3.3-0.7-5-2.4-5-4.8
					c0,0-0.2-0.2-0.2-0.7c0-3.3,2-5.2,5.7-5.7h15c2.6,0,4.6,1.3,5.7,3.9c0,0.4,0.2,0.9,0.2,1.3v29.6c0,2.2-6.5,3.9-19.4,5.7h-5.2
					c-12.2,0-22-5-29.6-15c-3.7-6.8-5.7-13.1-5.7-19.2v-2.8c0-8.7,3.3-17.2,9.8-25.7C283.8,84.4,292.3,80.9,302.5,80.9z"/>
			</g>
		</g>
	</g>
</g>
</svg>
