<?xml version="1.0" encoding="utf-8"?>
<!-- Generator: Adobe Illustrator 22.1.0, SVG Export Plug-In . SVG Version: 6.00 Build 0)  -->
<svg version="1.1" id="Layer_1" xmlns="http://www.w3.org/2000/svg" xmlns:xlink="http://www.w3.org/1999/xlink" x="0px" y="0px"
	 viewBox="0 0 355 229" style="enable-background:new 0 0 355 229;" xml:space="preserve">
<style type="text/css">
	.st0{fill:#FFFFE7;}
</style>
<g>
	
		<image style="overflow:visible;" width="386" height="185" xlink:href="3047766D189AB833.png"  transform="matrix(1 0 0 1 -19.4711 24.1985)">
	</image>
</g>
<g>
	
		<image style="overflow:visible;" width="385" height="186" xlink:href="3047766D189AB831.png"  transform="matrix(1 0 0 1 -19.609 24.5135)">
	</image>
</g>
<g>
	<path class="st0" d="M48.7,86.1h0.2c1.2,0.2,1.8,0.9,1.8,1.9v52.3c0,9.8-3.3,17.4-9.8,22.8c-4,2.7-7.9,4.1-11.5,4.1h-0.8
		c-3.7-0.6-5.6-2.5-5.6-5.6v-1.3c0-2.7,2.4-4.5,7.3-5.6c4.3-2.3,6.4-6.4,6.4-12.2v-0.5c0-1.1,0.7-1.7,2.1-1.9h0.1
		c0.9,0,1.5,0.6,1.7,1.7v0.5c0,8.9-3.9,14.6-11.7,16.9c-1.2,0-1.9,0.6-2.2,1.7c0.2,1.7,0.9,2.5,2.3,2.5c2.2,0,5.3-1,9-3
		c5.8-4.6,8.7-11.4,8.7-20.4V88C47.1,86.8,47.7,86.1,48.7,86.1z M43.2,66.6h1.3c3.1,0,5.5,2,7.1,5.9c0.1,0.6,0.2,1,0.2,1.4v0.9
		c0,0.8-0.6,1.4-1.8,1.7c-1.5,0-2.2-1.2-2.2-3.6c-1.1-1.8-2.3-2.6-3.8-2.6c-2.8,0.5-4.2,1.8-4.2,3.9v0.3c0,2.6,1.6,4,4.9,4.3
		c0.8,0.3,1.2,0.9,1.2,1.9v0.2c0,0.9-0.7,1.5-2,1.7c-3.7,0-6.2-2-7.6-5.9c-0.2-0.4-0.3-1-0.3-1.7v-0.6c0-3.5,1.9-6,5.7-7.5
		C41.9,66.7,42.5,66.6,43.2,66.6z"/>
	<path class="st0" d="M86.5,69.6c7.4,0,13.4,2.7,17.9,8.1c2.1,3.1,3.2,6.6,3.2,10.5c0,8-4.5,13.6-13.6,16.6v0.3
		c5.4,1.4,9.6,3.8,12.4,7.2c2.5,3.1,3.7,6.3,3.7,9.7v2.3c0,7.2-3.6,13.1-10.7,17.9c-5,2.7-9.9,4-14.9,4h-3c-6.1,0-12.4-1.8-18.9-5.4
		c0-0.2-0.1-0.4-0.3-0.6v-0.9c0-1,0.7-1.6,2.1-1.8c6.4,3.3,12.7,5,18.7,5c8.7,0,15.4-2.9,20-8.8c2.1-3.2,3.2-6.7,3.2-10.4
		c0-8.1-5.7-13.1-17.2-15.2c-2.9-0.5-5.6-0.8-8.2-0.8c-0.3,0-0.5-0.1-0.5-0.2l-0.8,0.2h-4.8c-1.2,0-1.8-0.8-1.9-2.3
		c0-0.8,0.6-1.4,1.7-1.7c2.6-0.1,4.3-0.2,5-0.2c0.1,0,0.3,0.1,0.5,0.2c0.2-0.1,0.4-0.2,0.8-0.2c7.5,0,13.7-1.9,18.7-5.6
		c2.7-2.5,4-5.6,4-9.3c0-6.8-3.5-11.3-10.4-13.6c-1.9-0.7-4.4-1.1-7.7-1.3c-5.7,0-10.9,1.4-15.8,4.2v0.8c0,0.8,0.3,1.5,0.8,2H71
		c0.3,0,1.8-0.6,4.6-1.8c2.8-0.8,5.3-1.3,7.7-1.3h1.3c7,0,11.3,3.3,13.1,9.8c0.1,0.7,0.2,1.4,0.2,2.1V90c0,1-0.7,1.6-2.1,1.8
		c-1.4,0-2.1-1.5-2.1-4.6c-0.7-2.1-1.8-3.6-3.4-4.5c-1.8-0.9-3.7-1.4-5.7-1.4h-1.4c-3,0-6.6,0.9-10.7,2.8c-0.4,0.1-0.8,0.2-1.3,0.2
		h-0.3c-2.5,0-4.1-1.5-5-4.5c-0.1-0.5-0.2-1.1-0.2-1.6v-0.5c0-3.9,5.8-6.6,17.4-8.1H86.5z"/>
	<path class="st0" d="M151.6,70.6h1.7c5,0,8.5,4.3,10.5,13c10.8,31.2,17,49.6,18.7,55.1v2c0,2.8-2,4.6-6,5.2h-1.3
		c-3.8,0-6.4-3.3-7.8-10c-2.3-7-3.9-10.5-4.8-10.5c-2.5-2.5-6.2-3.7-10.9-3.7c-2.6,0-6.8,0.7-12.4,2c-1,0-1.6-0.7-2-2.2v-0.2
		c0-1.6,2.3-2.7,6.9-3.2c1.7-0.5,3.8-0.7,6.2-0.7h2.7c6.5,0,11.5,2.6,14.9,7.8c0.5,1,2.3,6,5.3,14.9c0.6,0.8,1.2,1.3,1.8,1.3h1.4
		c0.9,0,1.5-0.5,1.6-1.6c-12.9-38.7-20.1-59.6-21.5-62.8c-0.9-1.3-2.2-2-3.9-2h-1.1c-2.7,0-4.7,2.8-6.1,8.4l-21.1,61.7
		c-0.5,0.5-1,0.7-1.4,0.7h-0.7c-1.2-0.2-1.8-0.8-1.8-1.8v-0.5c0.7-2.4,8-24,21.9-64.7C144.6,73.3,147.6,70.6,151.6,70.6z"/>
	<path class="st0" d="M198.6,70.1h1.8c2.9,0,4.8,2.1,5.7,6.3c1,7.5,2.7,13.3,5,17.3c9.4,15.5,19.1,31.1,29.2,47l2.3,0.7
		c1.9,0,3.2-1.3,4-3.8V77.8c-0.1-2.1-0.5-3.2-1.3-3.2h-1.4c-0.9,0-1.5,0.6-1.6,1.8l0.7,55.4c0,1-0.7,1.6-2.2,2h-0.2
		c-1.4-0.3-2.2-1-2.2-2.2c0-5-0.2-23.5-0.7-55.6c0-2,1.2-3.8,3.7-5.5c1.1-0.2,1.8-0.4,2.3-0.4h1.1c2.7,0,4.7,1.7,5.9,5v62.9
		c0,3.2-2,5.7-5.9,7.5c-0.6,0.1-1.2,0.2-1.6,0.2h-1.5c-3.2,0-5.8-2.3-8-7c-16-25.3-25.5-40.8-28.3-46.3c-2.5-6.4-3.7-11.6-3.7-15.6
		c-0.4-1.7-1.1-2.5-2.2-2.5c-1.5,0-2.3,1.2-2.3,3.6v66.3c-0.5,0.9-1.1,1.4-1.8,1.4h-0.7c-1.2-0.2-1.8-0.8-1.8-1.8V76.1
		C194,72.1,195.9,70.1,198.6,70.1z"/>
	<path class="st0" d="M297.7,70.1h3.5c6,0,12.4,1.1,19.1,3.3c0.6,0.7,0.9,1.4,0.9,2c0,1.1-0.8,1.8-2.5,2.1c-7-2.1-13.4-3.2-19.3-3.2
		c-15.5,0-25.8,6.6-30.9,19.8c-2,5.2-3,10.1-3,14.7c0,8.2,2.7,15.8,8.1,22.7c6.8,6.6,15.3,10,25.8,10c5.6,0,12-1.1,19.5-3.3v-27.7
		c0-1.5-0.5-2.3-1.6-2.3h-15.8c-0.9,0-1.4,0.5-1.4,1.4c0,0.9,0.4,1.4,1.3,1.4h10.3c1.8,0.1,2.6,1,2.6,2.6v20.2
		c-0.2,1.6-0.9,2.4-2,2.4h-0.5c-1.3-0.2-1.9-0.8-1.9-1.9v-19h-9c-3.4-0.7-5.1-2.4-5.1-5.1c-0.1,0-0.2-0.2-0.2-0.7c0-3.4,2-5.3,6-5.8
		h15.5c2.8,0,4.7,1.3,5.8,4c0.1,0.5,0.2,0.9,0.2,1.4V140c0,2.2-6.7,4.1-20,5.8h-5.4c-12.7,0-22.8-5.2-30.5-15.6
		c-3.9-7-5.8-13.6-5.8-19.8v-3c0-9,3.4-17.8,10.2-26.5C278.4,73.7,287.1,70.1,297.7,70.1z"/>
</g>
</svg>
