<?xml version="1.0" encoding="utf-8"?>
<!-- Generator: Adobe Illustrator 22.1.0, SVG Export Plug-In . SVG Version: 6.00 Build 0)  -->
<svg version="1.1" id="Layer_1" xmlns="http://www.w3.org/2000/svg" xmlns:xlink="http://www.w3.org/1999/xlink" x="0px" y="0px"
	 viewBox="0 0 400 400" style="enable-background:new 0 0 400 400;" xml:space="preserve">
<style type="text/css">
	.st0{display:none;}
	.st1{fill:#FFFFFF;}
</style>
<g>
	<g class="st0">
		
			<image style="display:inline;overflow:visible;" width="210" height="108" xlink:href="93FC865BC844F4D9.png"  transform="matrix(1 0 0 1 94.285 135.4332)">
		</image>
	</g>
	<g>
		
			<image style="overflow:visible;" width="209" height="108" xlink:href="93FC865BC844F4DB.png"  transform="matrix(1 0 0 1 95.285 135.4332)">
		</image>
	</g>
	<g>
		
			<image style="overflow:visible;" width="209" height="108" xlink:href="93FC865BC844F4DE.png"  transform="matrix(1 0 0 1 95.285 135.4332)">
		</image>
	</g>
	<g>
		
			<image style="overflow:visible;" width="258" height="155" xlink:href="93FC865BC844F4DF.png"  transform="matrix(1 0 0 1 70.8875 111.5604)">
		</image>
		<g>
			<g>
				<path class="st1" d="M143.8,172.6h0.7c1.5,0,2.4,0.9,2.7,2.8v20.2c0,3.8-1.3,6.7-4,8.9c-2,1.1-3.8,1.6-5.6,1.6h-1.3
					c-3.2-0.2-4.9-0.7-4.9-1.6v-0.2c0.1-0.6,0.4-0.9,0.9-0.9h0.1c1.9,0.5,3.4,0.8,4.5,0.8c3,0,5.2-1,6.7-3.1c1.1-1.9,1.6-3.9,1.6-6
					c0-0.7-0.1-1.2-0.1-1.6v-18.3c0-0.5-0.3-0.8-1-0.9c-0.7,0-1.1,0.5-1.1,1.4v18.4c0,0.4-0.3,0.7-0.9,0.8c-0.6,0-1-0.4-1-1.1v-18
					c0-1.6,0.6-2.7,1.8-3.3C143.5,172.7,143.7,172.6,143.8,172.6z"/>
				<path class="st1" d="M162.7,172.4c3.3,0,5.9,1.2,7.9,3.6c1,1.4,1.4,3,1.4,4.7c0,3.6-2,6-6,7.4v0.1c2.4,0.6,4.2,1.7,5.5,3.2
					c1.1,1.4,1.6,2.8,1.6,4.3v1c0,3.2-1.6,5.8-4.8,7.9c-2.2,1.2-4.4,1.8-6.6,1.8h-1.3c-2.7,0-5.5-0.8-8.4-2.4c0-0.1,0-0.2-0.1-0.3
					v-0.4c0-0.4,0.3-0.7,0.9-0.8c2.9,1.5,5.6,2.2,8.3,2.2c3.9,0,6.8-1.3,8.9-3.9c0.9-1.4,1.4-3,1.4-4.6c0-3.6-2.6-5.8-7.7-6.8
					c-1.3-0.2-2.5-0.4-3.6-0.4c-0.1,0-0.2,0-0.2-0.1l-0.4,0.1h-2.1c-0.5,0-0.8-0.3-0.8-1c0-0.4,0.3-0.6,0.8-0.8
					c1.2,0,1.9-0.1,2.2-0.1c0,0,0.1,0,0.2,0.1c0.1,0,0.2-0.1,0.4-0.1c3.3,0,6.1-0.8,8.3-2.5c1.2-1.1,1.8-2.5,1.8-4.1
					c0-3-1.5-5-4.6-6c-0.8-0.3-2-0.5-3.4-0.6c-2.5,0-4.9,0.6-7,1.9v0.4c0,0.4,0.1,0.7,0.4,0.9h0.2c0.1,0,0.8-0.3,2-0.8
					c1.2-0.4,2.4-0.6,3.4-0.6h0.6c3.1,0,5,1.4,5.8,4.3c0,0.3,0.1,0.6,0.1,0.9v0.4c0,0.4-0.3,0.7-0.9,0.8c-0.6,0-0.9-0.7-0.9-2.1
					c-0.3-0.9-0.8-1.6-1.5-2c-0.8-0.4-1.6-0.6-2.6-0.6h-0.6c-1.3,0-2.9,0.4-4.8,1.3c-0.2,0-0.4,0.1-0.6,0.1h-0.1
					c-1.1,0-1.8-0.7-2.2-2c0-0.2-0.1-0.5-0.1-0.7V176c0-1.8,2.6-3,7.7-3.6H162.7z"/>
				<path class="st1" d="M191.7,172.8h0.8c2.2,0,3.8,1.9,4.7,5.8c4.8,13.9,7.6,22,8.3,24.5v0.9c0,1.3-0.9,2-2.7,2.3h-0.6
					c-1.7,0-2.8-1.5-3.5-4.4c-1-3.1-1.7-4.7-2.1-4.7c-1.1-1.1-2.7-1.6-4.8-1.6c-1.2,0-3,0.3-5.5,0.9c-0.4,0-0.7-0.3-0.9-1v-0.1
					c0-0.7,1-1.2,3.1-1.4c0.8-0.2,1.7-0.3,2.8-0.3h1.2c2.9,0,5.1,1.2,6.6,3.5c0.2,0.4,1,2.6,2.4,6.6c0.3,0.4,0.5,0.6,0.8,0.6h0.6
					c0.4,0,0.7-0.2,0.7-0.7c-5.7-17.2-8.9-26.5-9.6-27.9c-0.4-0.6-1-0.9-1.7-0.9h-0.5c-1.2,0-2.1,1.2-2.7,3.7l-9.4,27.4
					c-0.2,0.2-0.4,0.3-0.6,0.3h-0.3c-0.5-0.1-0.8-0.4-0.8-0.8v-0.2c0.3-1.1,3.6-10.7,9.7-28.8C188.6,174,189.9,172.8,191.7,172.8z"
					/>
				<path class="st1" d="M212.6,172.6h0.8c1.3,0,2.1,0.9,2.5,2.8c0.4,3.3,1.2,5.9,2.2,7.7c4.2,6.9,8.5,13.8,13,20.9l1,0.3
					c0.8,0,1.4-0.6,1.8-1.7v-26.6c0-1-0.2-1.4-0.6-1.4h-0.6c-0.4,0-0.6,0.3-0.7,0.8l0.3,24.6c0,0.4-0.3,0.7-1,0.9h-0.1
					c-0.6-0.1-1-0.4-1-1c0-2.2-0.1-10.5-0.3-24.7c0-0.9,0.6-1.7,1.7-2.5c0.5-0.1,0.8-0.2,1-0.2h0.5c1.2,0,2.1,0.7,2.6,2.2v28
					c0,1.4-0.9,2.5-2.6,3.4c-0.3,0-0.5,0.1-0.7,0.1h-0.7c-1.4,0-2.6-1-3.6-3.1c-7.1-11.3-11.3-18.1-12.6-20.6
					c-1.1-2.9-1.7-5.2-1.7-6.9c-0.2-0.8-0.5-1.1-1-1.1c-0.7,0-1,0.5-1,1.6v29.5c-0.2,0.4-0.5,0.6-0.8,0.6h-0.3
					c-0.5-0.1-0.8-0.4-0.8-0.8v-30.2C210.5,173.5,211.4,172.6,212.6,172.6z"/>
				<path class="st1" d="M256.6,172.6h1.5c2.7,0,5.5,0.5,8.5,1.5c0.3,0.3,0.4,0.6,0.4,0.9c0,0.5-0.4,0.8-1.1,0.9
					c-3.1-0.9-6-1.4-8.6-1.4c-6.9,0-11.5,2.9-13.7,8.8c-0.9,2.3-1.3,4.5-1.3,6.5c0,3.7,1.2,7,3.6,10.1c3,3,6.8,4.4,11.5,4.4
					c2.5,0,5.4-0.5,8.6-1.5v-12.3c0-0.7-0.2-1-0.7-1h-7c-0.4,0-0.6,0.2-0.6,0.6c0,0.4,0.2,0.6,0.6,0.6h4.6c0.8,0.1,1.2,0.5,1.2,1.2
					v9c-0.1,0.7-0.4,1.1-0.9,1.1h-0.2c-0.6-0.1-0.8-0.4-0.8-0.8v-8.4h-4c-1.5-0.3-2.3-1.1-2.3-2.2c0,0-0.1-0.1-0.1-0.3
					c0-1.5,0.9-2.4,2.6-2.6h6.9c1.2,0,2.1,0.6,2.6,1.8c0,0.2,0.1,0.4,0.1,0.6v13.6c0,1-3,1.8-8.9,2.6h-2.4c-5.6,0-10.1-2.3-13.6-6.9
					c-1.7-3.1-2.6-6-2.6-8.8v-1.3c0-4,1.5-7.9,4.5-11.8C248,174.2,251.9,172.6,256.6,172.6z"/>
			</g>
		</g>
	</g>
</g>
</svg>
